<mxfile host="app.diagrams.net" modified="2024-01-10T05:41:57.035Z" agent="Mozilla/5.0 (Windows NT 10.0; Win64; x64) AppleWebKit/537.36 (KHTML, like Gecko) Chrome/120.0.0.0 Safari/537.36" version="22.1.18" etag="5Bn_ahXxYa20vA2gqp--" type="github">
  <diagram name="Page-1" id="VCnu8fW1wujwQlEsuVHH">
    <mxGraphModel>
      <root>
        <mxCell id="0" />
        <mxCell id="1" parent="0" />
      </root>
    </mxGraphModel>
  </diagram>
</mxfile>
